<?xml version="1.0" encoding="iso-8859-1"?>
<!-- Uploaded to: SVG Repo, www.svgrepo.com, Generator: SVG Repo Mixer Tools -->
<svg height="800px" width="800px" version="1.1" id="Layer_1" xmlns="http://www.w3.org/2000/svg" xmlns:xlink="http://www.w3.org/1999/xlink" 
	 viewBox="0 0 512 512" xml:space="preserve">
<path style="fill:#F4B74A;" d="M249.387,227.783l-31.555,28.733c-3.127,2.844-7.071,4.249-10.994,4.249
	c-4.446,0-8.869-1.798-12.094-5.339c-6.069-6.679-5.59-17.009,1.09-23.089l5.949-5.415l0.61-0.556l-6.941-0.893
	c-8.956-1.166-15.265-9.36-14.11-18.316c1.166-8.946,9.36-15.265,18.316-14.099l40.729,5.274c6.875,0.883,12.182,5.927,13.751,12.28
	c0.24,0.981,0.403,1.983,0.458,3.018C255.238,218.739,253.484,224.056,249.387,227.783z"/>
<path style="fill:#EFA125;" d="M249.387,227.783l-31.555,28.733c-3.127,2.844-7.071,4.249-10.994,4.249
	c-4.446,0-8.869-1.798-12.094-5.339c-6.069-6.679-5.59-17.009,1.09-23.089l5.949-5.415l52.355-16.311
	c0.24,0.981,0.403,1.983,0.458,3.018C255.238,218.739,253.484,224.056,249.387,227.783z"/>
<path style="fill:#477777;" d="M145.528,375.19c-7.209-5.432-17.456-3.991-22.889,3.216l-24.225,32.145l-2.071-1.508
	c-7.299-5.313-17.521-3.702-22.832,3.595c-5.313,7.298-3.702,17.521,3.595,22.832l12.753,9.283c0.595,0.618,1.229,1.208,1.936,1.741
	c2.946,2.221,6.398,3.292,9.824,3.292c4.957,0,9.853-2.247,13.065-6.509l34.063-45.2
	C154.177,390.871,152.737,380.623,145.528,375.19z"/>
<path style="fill:#437171;" d="M212.795,375.871c-8.219-3.724-17.906-0.078-21.632,8.144l-1.057,2.334l-36.935-16.002
	c-8.284-3.591-17.907,0.217-21.494,8.5c-3.588,8.283,0.217,17.906,8.5,21.494l51.933,22.499c2.116,0.917,4.32,1.351,6.489,1.351
	c6.317,0,12.334-3.685,15.005-9.851c0.352-0.812,0.611-1.638,0.824-2.468l6.509-14.37
	C224.664,389.281,221.017,379.597,212.795,375.871z"/>
<path style="fill:#BBD7D8;" d="M210.903,354.132c-15.897,23.306-39.269,40.141-65.942,47.495c-0.403,0.12-0.817,0.229-1.22,0.338
	c-10.024,2.637-20.223,3.944-30.378,3.944c-19.406,0.011-38.637-4.783-56.081-14.165c-0.523-0.283-1.035-0.567-1.547-0.861
	c-0.381-0.207-0.752-0.425-1.133-0.654c-11.005-6.254-20.811-14.165-29.136-23.361c-0.632-0.697-1.253-1.406-1.863-2.114
	c-9.795-11.332-17.401-24.505-22.348-38.953c-2.092-6.113-1.547-12.879,1.493-18.567c3.04-5.677,8.346-9.861,14.557-11.506
	l68.677-18.131l15.374-4.053l12.585-3.323l3.988-1.046l2.255-0.599l-9.588-36.36c-0.414-1.58-0.763-3.16-1.024-4.751
	c-2.07-12.203,0.185-24.658,6.516-35.532c7.159-12.291,18.632-21.051,32.317-24.668c28.34-7.475,57.476,9.49,64.951,37.82
	l17.597,66.661c0.022,0.098,0.044,0.196,0.065,0.294c0.327,1.09,0.556,2.212,0.654,3.389
	C234.089,302.986,226.713,330.945,210.903,354.132z"/>
<path style="fill:#B1CCCD;" d="M210.903,354.132c-15.897,23.306-39.269,40.141-65.942,47.495L113.94,270.222l3.988-1.046
	l2.255-0.599l-9.588-36.36c-0.414-1.58-0.763-3.16-1.024-4.751c-2.07-12.203,0.185-24.658,6.516-35.532
	c7.159-12.291,18.632-21.051,32.317-24.668c28.34-7.475,57.476,9.49,64.951,37.82l17.597,66.661
	c0.022,0.098,0.044,0.196,0.065,0.294c0.327,1.09,0.556,2.212,0.654,3.389C234.089,302.986,226.713,330.945,210.903,354.132z"/>
<path style="fill:#E8ECED;" d="M54.6,390.23c-11.005-6.254-20.811-14.165-29.136-23.361c38.67-11.659,63.382-48.694,60.636-87.876
	c-0.033-0.469-0.065-0.926-0.12-1.395l15.374-4.053l16.573-4.369C124.683,319.047,98.762,367.654,54.6,390.23z"/>
<path style="fill:#437171;" d="M177.979,214.585l-0.029-0.108c-1.126-4.184-3.862-7.752-7.61-9.926l-0.064-0.037
	c-3.731-2.164-8.164-2.77-12.34-1.688l0,0c-4.205,1.09-7.876,3.866-10.069,7.615l-0.037,0.064c-2.179,3.763-2.774,8.24-1.654,12.441
	l0.013,0.05c1.114,4.175,3.83,7.744,7.56,9.927l0.045,0.026c3.766,2.204,8.254,2.818,12.473,1.703l0,0l0.138-0.037
	C175.058,232.25,180.25,223.264,177.979,214.585z"/>
<path style="fill:#F4B74A;" d="M262.614,255.159l31.555,28.733c3.127,2.844,7.071,4.249,10.994,4.249
	c4.446,0,8.869-1.798,12.094-5.339c6.069-6.679,5.59-17.009-1.09-23.089l-5.949-5.415l-0.61-0.556l6.941-0.893
	c8.956-1.166,15.265-9.36,14.11-18.316c-1.166-8.946-9.36-15.265-18.316-14.099l-40.729,5.274
	c-6.875,0.883-12.182,5.927-13.751,12.28c-0.24,0.981-0.403,1.983-0.458,3.018C256.762,246.115,258.517,251.432,262.614,255.159z"/>
<path style="fill:#EFA125;" d="M262.614,255.159l31.555,28.733c3.127,2.844,7.071,4.249,10.994,4.249
	c4.446,0,8.869-1.798,12.094-5.339c6.069-6.679,5.59-17.009-1.09-23.089l-5.949-5.415l-52.355-16.311
	c-0.24,0.981-0.403,1.983-0.458,3.018C256.762,246.115,258.517,251.432,262.614,255.159z"/>
<path style="fill:#477777;" d="M366.471,402.566c7.209-5.432,17.456-3.991,22.889,3.216l24.225,32.145l2.071-1.508
	c7.299-5.313,17.521-3.702,22.832,3.595c5.313,7.298,3.702,17.521-3.595,22.832l-12.753,9.283c-0.595,0.618-1.229,1.208-1.936,1.741
	c-2.946,2.221-6.398,3.292-9.824,3.292c-4.957,0-9.853-2.247-13.065-6.509l-34.063-45.2
	C357.823,418.247,359.263,407.999,366.471,402.566z"/>
<path style="fill:#437171;" d="M299.204,403.247c8.219-3.724,17.906-0.078,21.632,8.144l1.057,2.334l36.935-16.002
	c8.284-3.591,17.907,0.217,21.494,8.5c3.588,8.283-0.217,17.906-8.5,21.494l-51.933,22.499c-2.116,0.917-4.32,1.351-6.489,1.351
	c-6.317,0-12.334-3.685-15.005-9.851c-0.352-0.812-0.611-1.638-0.824-2.468l-6.509-14.37
	C287.335,416.657,290.982,406.973,299.204,403.247z"/>
<path style="fill:#BBD7D8;" d="M301.098,381.508c15.897,23.306,39.269,40.141,65.942,47.495c0.403,0.12,0.817,0.229,1.22,0.338
	c10.024,2.637,20.223,3.944,30.378,3.944c19.406,0.011,38.637-4.783,56.081-14.165c0.523-0.283,1.035-0.567,1.547-0.861
	c0.381-0.207,0.752-0.425,1.133-0.654c11.005-6.254,20.811-14.165,29.136-23.361c0.632-0.697,1.253-1.406,1.863-2.114
	c9.795-11.332,17.401-24.505,22.348-38.953c2.092-6.113,1.547-12.879-1.493-18.567c-3.04-5.677-8.346-9.861-14.557-11.506
	l-68.677-18.131l-15.374-4.053l-12.585-3.323l-3.988-1.046l-2.255-0.599l9.588-36.36c0.414-1.58,0.763-3.16,1.024-4.751
	c2.07-12.203-0.185-24.658-6.516-35.532c-7.159-12.291-18.632-21.051-32.317-24.668c-28.34-7.475-57.476,9.49-64.951,37.82
	l-17.597,66.661c-0.022,0.098-0.044,0.196-0.065,0.294c-0.327,1.09-0.556,2.212-0.654,3.389
	C277.911,330.362,285.288,358.321,301.098,381.508z"/>
<path style="fill:#B1CCCD;" d="M301.098,381.508c15.897,23.306,39.269,40.141,65.942,47.495l31.021-131.405l-3.988-1.046
	l-2.255-0.599l9.588-36.36c0.414-1.58,0.763-3.16,1.024-4.751c2.07-12.203-0.185-24.658-6.516-35.532
	c-7.159-12.291-18.632-21.051-32.317-24.668c-28.34-7.475-57.476,9.49-64.951,37.82l-17.597,66.661
	c-0.022,0.098-0.044,0.196-0.065,0.294c-0.327,1.09-0.556,2.212-0.654,3.389C277.911,330.362,285.288,358.321,301.098,381.508z"/>
<path style="fill:#E8ECED;" d="M457.4,417.606c11.005-6.254,20.811-14.165,29.136-23.361c-38.67-11.659-63.382-48.694-60.636-87.876
	c0.033-0.469,0.065-0.926,0.12-1.395l-15.374-4.053l-16.573-4.369C387.316,346.423,413.239,395.03,457.4,417.606z"/>
<path style="fill:#437171;" d="M334.02,241.961l0.029-0.108c1.126-4.184,3.862-7.752,7.61-9.926l0.064-0.037
	c3.731-2.164,8.164-2.77,12.34-1.688l0,0c4.205,1.09,7.876,3.866,10.069,7.615l0.037,0.064c2.179,3.763,2.775,8.24,1.654,12.441
	l-0.013,0.05c-1.114,4.175-3.83,7.744-7.56,9.927l-0.045,0.026c-3.766,2.204-8.255,2.818-12.473,1.703l0,0l-0.138-0.037
	C336.942,259.626,331.749,250.64,334.02,241.961z"/>
<path style="fill:#F5888E;" d="M329.897,116.295l-59.862,59.862c-3.084,3.084-7.093,4.685-11.125,4.783
	c-0.142,0.011-0.283,0.011-0.425,0.011c-4.184,0-8.368-1.602-11.561-4.794c0,0,0,0-0.011,0l-59.633-59.633
	c-8.684-8.128-13.533-20.811-13.315-34.878c0.218-13.696,5.121-25.769,13.5-33.254c18.654-18.207,48.629-18.065,67.097,0.403
	l3.923,3.923l0.425-0.425l3.487-3.498c18.61-18.61,48.89-18.61,67.5,0C348.507,67.405,348.507,97.685,329.897,116.295z"/>
<path style="fill:#F76976;" d="M329.897,116.295l-59.862,59.862c-3.084,3.084-7.093,4.685-11.125,4.783V52.293l3.487-3.498
	c18.61-18.61,48.89-18.61,67.5,0C348.507,67.405,348.507,97.685,329.897,116.295z"/>
</svg>