<svg xmlns="http://www.w3.org/2000/svg" width="220" height="66" viewBox="0 0 220 66" fill="none"><g clip-path="url(#clip0_5_6)"><path d="M7.82637 61.7699C6.92373 60.2239 6.15373 58.4654 6.13432 56.6415C6.11167 54.6149 6.81696 52.0621 8.86814 51.2319C11.0358 50.3559 12.5564 48.4666 13.912 46.6297C15.2223 44.8548 16.2058 43.0211 18.3152 42.0928C19.7258 41.4718 21.2787 41.2593 22.8155 41.1907C25.9634 41.0501 29.1373 41.4881 32.1331 42.4818C33.0164 42.7727 33.9158 43.1355 34.5531 43.8154C35.2973 44.6097 35.5852 45.7275 36.0575 46.6852C36.5623 47.7051 37.054 48.7281 37.6073 49.7251C38.6523 51.6078 39.3996 52.2877 42.0849 52.7387C44.7734 53.1898 43.0555 56.4323 43.0555 56.4323C43.0555 56.4323 41.0399 61.2535 38.8011 62.5348C36.5623 63.8161 33.5017 62.7603 30.289 60.7272C27.0796 58.6942 24.3167 59.07 24.3167 59.07C19.6934 58.972 16.0537 62.5838 12.2199 64.6529C11.809 64.8719 11.3723 65.0876 10.9064 65.0712C10.8967 65.0712 10.8902 65.0712 10.8805 65.0712C9.48608 64.9993 8.43137 62.829 7.81667 61.7765" fill="white"></path><path d="M41.7195 47.617C44.8156 49.4932 47.2292 44.2895 47.5009 41.959C47.6142 41.0013 47.9636 38.6348 46.5724 38.4256C44.5568 38.1249 39.9271 42.9461 39.9271 42.9461C38.8595 43.9921 38.7333 45.8094 41.7195 47.617Z" fill="white"></path><path d="M3.04816 45.1302C3.04816 45.1302 4.98933 47.0129 7.60021 44.1496C10.2143 41.2863 9.6158 39.4036 8.42198 37.6712C7.22816 35.9388 4.09315 31.7191 1.33021 33.1507C-1.43273 34.5824 0.582861 42.9435 3.04816 45.1302Z" fill="white"></path><path d="M11.259 24.3353C7.75192 31.4184 10.7349 34.5072 10.7349 34.5072C15.2157 37.972 17.8266 35.9389 17.8266 35.9389C20.8128 32.095 15.0637 22.9036 15.0637 22.9036C13.5463 20.0926 11.2557 24.3353 11.2557 24.3353" fill="white"></path><path d="M27.2347 18.1573C27.2347 18.1573 22.3074 17.4774 21.6344 26.8976C20.9615 36.3145 26.3386 34.8828 26.3386 34.8828C26.3386 34.8828 30.5186 32.6994 30.593 25.8418C30.6674 18.9843 28.875 18.9091 27.2347 18.1573Z" fill="white"></path><path d="M32.3855 31.2874C32.3855 31.2874 30.2955 37.975 34.2523 39.2988C38.2091 40.6259 40.4479 35.4876 40.4479 35.4876C44.1814 24.639 39.2347 23.057 39.2347 23.057C34.8864 22.4523 32.3855 31.2874 32.3855 31.2874Z" fill="white"></path><path d="M37.9859 11.1883C36.792 14.3915 39.2347 15.8232 39.2347 15.8232C39.3641 10.3973 42.9132 6.55664 42.9132 6.55664C41.1209 6.707 39.1797 7.9883 37.9859 11.1915" fill="white"></path><path d="M25.2361 5.16115C23.9064 8.72722 26.6273 10.3223 26.6273 10.3223C26.7729 4.28189 30.7232 0 30.7232 0C28.727 0.1667 26.5659 1.59509 25.2361 5.16115Z" fill="white"></path><path d="M12.3462 9.25345C11.4597 12.6201 14.0803 13.8197 14.0803 13.8197C13.6629 8.30882 16.8724 4.0498 16.8724 4.0498C15.0735 4.38647 13.2359 5.8835 12.3462 9.25345Z" fill="white"></path><path d="M0.971379 20.9719C0.48932 24.0967 2.96756 24.9269 2.96756 24.9269C2.07138 19.9913 4.56256 15.8369 4.56256 15.8369C2.96756 16.3141 1.4502 17.8438 0.968144 20.9686" fill="white"></path><path d="M83.7361 18.4249C84.5741 18.4249 85.5447 17.9346 85.5447 23.8704C85.5447 36.4219 78.2199 46.3356 77.6052 46.3356C76.1849 46.3356 72.8947 37.7294 71.8302 37.7294C70.7658 37.7294 67.4723 46.3356 66.052 46.3356C65.4405 46.3356 59.1123 38.053 59.1123 26.871C59.1123 17.9379 59.727 18.4249 60.4032 18.4249H64.4052C64.7288 18.4249 65.1461 18.4576 65.1461 18.8825C65.1461 19.2094 64.2111 21.4909 64.2111 25.7956C64.2111 33.8168 66.1458 37.5659 66.8899 37.5659C67.8897 37.5659 70.5361 32.9376 70.5361 25.1779C70.5361 20.8404 69.9538 19.278 69.9538 18.8531C69.9538 18.4608 70.1479 18.4282 70.5038 18.4282H74.7C75.1205 18.4282 75.5055 18.4935 75.5055 18.9838C75.5055 19.5395 74.8941 21.4614 74.8941 25.0798C74.8941 32.3492 76.7349 37.5659 77.7023 37.5659C78.9285 37.5659 81.1867 31.8262 81.1867 26.3513C81.1867 22.8964 80.09 19.3401 80.09 18.9185C80.09 18.3955 80.4782 18.4282 80.7694 18.4282H83.7394L83.7361 18.4249Z" fill="white"></path><path d="M88.6088 19.991C88.6088 18.5888 89.8026 17.7422 91.0935 17.7422C92.3844 17.7422 93.5782 18.5888 93.5782 19.991C93.5782 21.3932 92.3844 22.1418 91.0935 22.1418C89.8026 22.1418 88.6088 21.3932 88.6088 19.991ZM89.9644 45.5549C88.3823 45.5549 88.2529 46.238 88.2529 34.7619C88.2529 23.2858 88.7706 24.688 89.835 24.688H91.6112C92.9668 24.688 92.9991 24.7861 92.9991 25.1783C92.9991 26.3844 92.6109 27.5905 92.6109 31.1435C92.6109 39.3608 93.8694 44.4141 93.8694 44.7083C93.8694 45.751 92.902 45.5549 92.1579 45.5549H89.9644Z" fill="white"></path><path d="M97.5315 45.5545C96.4024 45.5545 96.5318 34.6308 96.5318 33.8823C96.5318 32.3493 96.4024 17.7418 97.8551 17.7418H100.922C101.278 17.7418 102.245 17.6438 102.245 18.3596C102.245 18.5557 100.89 23.2495 100.89 31.3687C100.89 40.3346 102.116 44.7374 102.116 45.159C102.116 45.7147 101.278 45.5513 100.922 45.5513H97.5348L97.5315 45.5545Z" fill="white"></path><path d="M114.103 33.4254C114.103 27.6857 113.233 27.2967 112.039 27.2967C110.651 27.2967 107.49 29.1239 107.49 35.0564C107.49 37.3052 108.328 40.7928 111.072 40.7928C114.556 40.7928 114.103 35.7722 114.103 33.4254ZM109.907 45.5552C106.293 45.5552 103.129 42.3258 103.129 35.7396C103.129 28.274 108.034 24.1981 110.874 24.1981C111.55 24.1981 112.262 24.9466 112.715 24.9466C113.359 24.9466 113.456 23.7731 113.456 23.2502C113.456 20.6091 112.65 19.4357 112.65 18.1969C112.65 17.7393 113.456 17.7393 113.779 17.7393H117.134C118.587 17.7393 118.458 32.3467 118.458 33.8797C118.458 34.6282 118.587 45.552 117.458 45.552H109.907V45.5552Z" fill="white"></path><path d="M122.718 45.5545C121.589 45.5545 121.718 34.6308 121.718 33.8823C121.718 32.3493 121.589 17.7418 123.042 17.7418H126.109C126.465 17.7418 127.432 17.6438 127.432 18.3596C127.432 18.5557 126.076 23.2495 126.076 31.3687C126.076 40.3346 127.302 44.7374 127.302 45.159C127.302 45.7147 126.465 45.5513 126.109 45.5513H122.721L122.718 45.5545Z" fill="white"></path><path d="M130.075 19.991C130.075 18.5888 131.269 17.7422 132.56 17.7422C133.851 17.7422 135.045 18.5888 135.045 19.991C135.045 21.3932 133.851 22.1418 132.56 22.1418C131.269 22.1418 130.075 21.3932 130.075 19.991ZM131.431 45.5549C129.849 45.5549 129.723 46.238 129.723 34.7619C129.723 23.2858 130.237 24.688 131.305 24.688H133.081C134.436 24.688 134.469 24.7861 134.469 25.1783C134.469 26.3844 134.081 27.5905 134.081 31.1435C134.081 39.3608 135.339 44.4141 135.339 44.7083C135.339 45.751 134.372 45.5549 133.631 45.5549H131.434H131.431Z" fill="white"></path><path d="M140.855 45.5546C140.373 45.5546 139.791 46.5319 139.791 35.8043C139.791 34.1733 139.888 32.5422 139.888 30.9144C139.888 29.9371 140.179 28.0773 138.726 28.0773C138.144 28.0773 137.824 28.4695 137.468 28.4695C137.047 28.4695 137.08 28.0446 137.08 27.4595C137.08 24.9819 137.791 24.6877 139.014 24.6877C140.467 24.6877 140.467 22.5043 140.92 21.0367C141.531 19.0167 143.534 17.7452 145.213 17.7452C146.472 17.7452 148.118 17.5817 148.118 18.5264C148.118 19.0167 147.73 22.2101 147.183 22.2101C146.731 22.2101 146.601 21.9159 146.248 21.9159C145.346 21.9159 144.731 23.2528 144.731 24.0013C144.731 24.4589 145.055 24.8479 145.537 24.8479C145.957 24.8479 146.342 24.6845 146.763 24.6845C147.989 24.6845 148.021 25.5637 148.021 26.675C148.021 27.1327 148.021 28.3715 147.345 28.3715C147.086 28.3715 146.443 28.0773 145.86 28.0773C144.084 28.0773 144.149 30.2934 144.149 31.5649C144.149 35.8697 145.343 44.5413 145.343 44.9663C145.343 45.6854 144.89 45.5546 144.311 45.5546H140.858H140.855Z" fill="white"></path><path d="M152.809 32.7709C152.809 33.1304 152.971 33.4867 153.392 33.4867C153.78 33.4867 159.652 32.1825 159.652 30.5188C159.652 28.8551 158.167 28.0412 156.941 28.0412C154.327 28.0412 152.809 30.8783 152.809 32.7676M148.451 36.0003C148.451 28.1098 152.777 24.1973 157.099 24.1973C160.649 24.1973 163.651 26.2173 163.651 30.0644C163.651 37.0756 153.259 35.608 153.259 38.9976C153.259 40.5306 155.711 41.6386 157.326 41.6386C162.619 41.6386 162.619 37.5627 163.072 37.5627C163.554 37.5627 163.651 39.2591 163.651 39.5173C163.651 43.6586 160.487 46.0382 156.614 46.0382C150.839 46.0382 148.448 41.2137 148.448 35.997" fill="white"></path><path d="M180.481 31.0783C180.481 31.4706 180.708 31.6994 181.096 31.6994C181.678 31.6994 184.807 30.8528 187.648 30.8528C188.777 30.8528 189.294 30.6894 189.294 29.7774C189.294 27.7574 186.907 23.518 185.68 23.518C183.937 23.518 180.485 28.702 180.485 31.0816M188.968 45.5551C188.676 45.5551 187.741 45.6531 187.741 45.1628C187.741 44.2509 190.226 40.9888 190.226 37.2724C190.226 35.8048 188.838 35.2524 187.385 35.2524C184.448 35.2524 179.77 35.7753 179.77 39.4918C179.77 42.0674 181.866 44.8392 181.866 45.3263C181.866 45.5224 181.672 45.5551 181.251 45.5551H176.635C174.988 45.5551 174.538 42.6198 174.538 38.3804C174.538 24.4267 184.121 17.9385 185.541 17.9385C186.606 17.9385 194.933 22.5995 194.933 37.73C194.933 46.4343 193.545 45.5551 192.578 45.5551H188.964H188.968Z" fill="white"></path><path d="M197.842 19.991C197.842 18.5888 199.036 17.7422 200.327 17.7422C201.618 17.7422 202.812 18.5888 202.812 19.991C202.812 21.3932 201.618 22.1418 200.327 22.1418C199.036 22.1418 197.842 21.3932 197.842 19.991ZM199.198 45.5549C197.616 45.5549 197.486 46.238 197.486 34.7619C197.486 23.2858 198.001 24.688 199.068 24.688H200.845C202.2 24.688 202.233 24.7861 202.233 25.1783C202.233 26.3844 201.844 27.5905 201.844 31.1435C201.844 39.3608 203.103 44.4141 203.103 44.7083C203.103 45.751 202.135 45.5549 201.391 45.5549H199.198Z" fill="white"></path><path d="M215.639 33.4254C215.639 27.6857 214.769 27.2967 213.575 27.2967C212.187 27.2967 209.023 29.1239 209.023 35.0564C209.023 37.3052 209.861 40.7928 212.604 40.7928C216.089 40.7928 215.639 35.7722 215.639 33.4254ZM211.443 45.5552C207.829 45.5552 204.665 42.3258 204.665 35.7396C204.665 28.274 209.57 24.1981 212.41 24.1981C213.09 24.1981 213.798 24.9466 214.251 24.9466C214.895 24.9466 214.992 23.7731 214.992 23.2502C214.992 20.6091 214.187 19.4357 214.187 18.1969C214.187 17.7393 214.992 17.7393 215.316 17.7393H218.671C220.123 17.7393 219.994 32.3467 219.994 33.8797C219.994 34.6282 220.123 45.552 218.994 45.552H211.443V45.5552Z" fill="white"></path><path d="M63.4796 51.0587V53.6311H66.4723V54.4417H63.4796V57.6024H62.4961V50.248H66.9802V51.0587H63.4796Z" fill="white"></path><path d="M84.5122 53.9292C84.5122 53.4781 84.4507 53.0728 84.3278 52.7133C84.2048 52.3537 84.0333 52.0497 83.8101 51.8013C83.5869 51.5529 83.3151 51.3633 82.9981 51.2293C82.681 51.0953 82.3251 51.0299 81.9304 51.0299C81.5357 51.0299 81.1863 51.0953 80.8692 51.2293C80.5522 51.3633 80.2804 51.5529 80.0539 51.8013C79.8275 52.0497 79.656 52.3537 79.5331 52.7133C79.4101 53.0728 79.3486 53.4781 79.3486 53.9292C79.3486 54.3802 79.4101 54.7856 79.5331 55.1418C79.656 55.5014 79.8275 55.8021 80.0539 56.0505C80.2804 56.2989 80.5522 56.4885 80.8692 56.6193C81.1863 56.75 81.5422 56.8154 81.9304 56.8154C82.3186 56.8154 82.6778 56.75 82.9981 56.6193C83.3151 56.4885 83.5869 56.2989 83.8101 56.0505C84.0333 55.8021 84.2048 55.5014 84.3278 55.1418C84.4507 54.7856 84.5122 54.3802 84.5122 53.9292ZM85.5216 53.9292C85.5216 54.4783 85.4342 54.9849 85.2628 55.4458C85.0913 55.9067 84.8454 56.3022 84.5316 56.6323C84.2178 56.9657 83.8392 57.2207 83.396 57.4037C82.9528 57.5868 82.4642 57.6783 81.9304 57.6783C81.3966 57.6783 80.9081 57.5868 80.4681 57.4037C80.0281 57.2207 79.6495 56.9625 79.3357 56.6323C79.0219 56.3022 78.776 55.9034 78.6045 55.4458C78.4331 54.9849 78.3457 54.4783 78.3457 53.9292C78.3457 53.38 78.4331 52.8734 78.6045 52.4125C78.776 51.9517 79.0219 51.5562 79.3357 51.2228C79.6495 50.8894 80.0281 50.6311 80.4681 50.4448C80.9081 50.2585 81.3966 50.167 81.9304 50.167C82.4642 50.167 82.9528 50.2585 83.396 50.4448C83.8392 50.6311 84.2178 50.8894 84.5316 51.2228C84.8454 51.5562 85.0913 51.9549 85.2628 52.4125C85.4342 52.8734 85.5216 53.38 85.5216 53.9292Z" fill="white"></path><path d="M99.5437 56.8124C99.8445 56.8124 100.113 56.7601 100.352 56.6588C100.589 56.5575 100.789 56.4136 100.954 56.2273C101.119 56.041 101.245 55.822 101.33 55.5671C101.417 55.3089 101.459 55.0278 101.459 54.7205V50.249H102.439V54.7205C102.439 55.1454 102.371 55.5377 102.239 55.9005C102.106 56.2633 101.915 56.5771 101.666 56.8418C101.417 57.1066 101.113 57.3158 100.754 57.4661C100.395 57.6165 99.9934 57.6917 99.5437 57.6917C99.094 57.6917 98.6928 57.6165 98.3337 57.4661C97.9745 57.3158 97.6704 57.1066 97.4181 56.8418C97.169 56.5771 96.9748 56.2633 96.8422 55.9005C96.7095 55.5377 96.6416 55.1454 96.6416 54.7205V50.249H97.6219V54.714C97.6219 55.0212 97.664 55.3056 97.7513 55.5605C97.8387 55.8188 97.9616 56.0378 98.1266 56.2241C98.2916 56.4104 98.4922 56.5542 98.7316 56.6588C98.971 56.7634 99.2395 56.8157 99.5404 56.8157" fill="white"></path><path d="M119.913 50.249V57.6034H119.421C119.343 57.6034 119.278 57.5904 119.223 57.5609C119.172 57.5348 119.12 57.489 119.068 57.4236L114.856 51.8801C114.862 51.9651 114.869 52.05 114.872 52.1318C114.875 52.2135 114.878 52.2919 114.878 52.3638V57.6034H114.015V50.249H114.523C114.568 50.249 114.603 50.249 114.636 50.2556C114.665 50.2621 114.694 50.2686 114.717 50.2817C114.739 50.2948 114.765 50.3111 114.788 50.334C114.811 50.3569 114.836 50.383 114.866 50.419L119.075 55.956C119.068 55.8678 119.062 55.7795 119.058 55.6978C119.052 55.6128 119.052 55.5344 119.052 55.4592V50.249H119.916H119.913Z" fill="white"></path><path d="M137.26 53.9292C137.26 53.4781 137.199 53.0728 137.079 52.7198C136.956 52.3635 136.784 52.0628 136.561 51.8176C136.338 51.5725 136.066 51.3829 135.749 51.2522C135.432 51.1214 135.076 51.056 134.682 51.056H132.951V56.799H134.682C135.076 56.799 135.429 56.7336 135.749 56.6029C136.066 56.4721 136.338 56.2858 136.561 56.0407C136.784 55.7955 136.956 55.4948 137.079 55.1385C137.202 54.7823 137.26 54.3802 137.26 53.9292ZM138.273 53.9292C138.273 54.4783 138.185 54.9816 138.014 55.4327C137.842 55.8838 137.597 56.2728 137.283 56.5931C136.969 56.9134 136.59 57.1651 136.147 57.3416C135.704 57.5181 135.215 57.6064 134.682 57.6064H131.964V50.252H134.682C135.215 50.252 135.704 50.3402 136.147 50.5167C136.59 50.6932 136.966 50.9416 137.283 51.2652C137.597 51.5888 137.842 51.9778 138.014 52.4289C138.185 52.8799 138.273 53.3833 138.273 53.9324" fill="white"></path><path d="M153.618 54.8709L152.476 51.8801C152.444 51.7918 152.408 51.6872 152.37 51.5695C152.334 51.4519 152.298 51.3277 152.263 51.1937C152.192 51.4715 152.121 51.7003 152.043 51.8866L150.901 54.8741H153.618V54.8709ZM155.67 57.6034H154.906C154.819 57.6034 154.748 57.5805 154.693 57.5381C154.638 57.4956 154.599 57.4367 154.57 57.3681L153.89 55.5932H150.623L149.943 57.3681C149.924 57.4302 149.885 57.4858 149.827 57.5315C149.768 57.5805 149.697 57.6034 149.613 57.6034H148.85L151.761 50.249H152.758L155.67 57.6034Z" fill="white"></path><path d="M171.099 51.0848H168.743V57.6024H167.763V51.0848H165.401V50.248H171.099V51.0848Z" fill="white"></path><path d="M183.859 50.248H182.872V57.6024H183.859V50.248Z" fill="white"></path><path d="M201.235 53.9292C201.235 53.4781 201.173 53.0728 201.05 52.7133C200.927 52.3537 200.756 52.0497 200.533 51.8013C200.31 51.5529 200.038 51.3633 199.721 51.2293C199.404 51.0953 199.048 51.0299 198.653 51.0299C198.258 51.0299 197.909 51.0953 197.592 51.2293C197.275 51.3633 197.003 51.5529 196.777 51.8013C196.55 52.0497 196.379 52.3537 196.256 52.7133C196.133 53.0728 196.071 53.4781 196.071 53.9292C196.071 54.3802 196.133 54.7856 196.256 55.1418C196.379 55.5014 196.55 55.8021 196.777 56.0505C197.003 56.2989 197.275 56.4885 197.592 56.6193C197.909 56.75 198.265 56.8154 198.653 56.8154C199.041 56.8154 199.4 56.75 199.721 56.6193C200.038 56.4885 200.31 56.2989 200.533 56.0505C200.756 55.8021 200.927 55.5014 201.05 55.1418C201.173 54.7856 201.235 54.3802 201.235 53.9292ZM202.244 53.9292C202.244 54.4783 202.157 54.9849 201.985 55.4458C201.814 55.9067 201.568 56.3022 201.254 56.6323C200.94 56.9657 200.562 57.2207 200.119 57.4037C199.679 57.5868 199.187 57.6783 198.653 57.6783C198.119 57.6783 197.631 57.5868 197.191 57.4037C196.751 57.2207 196.372 56.9625 196.058 56.6323C195.745 56.3022 195.499 55.9034 195.327 55.4458C195.156 54.9849 195.068 54.4783 195.068 53.9292C195.068 53.38 195.156 52.8734 195.327 52.4125C195.499 51.9517 195.745 51.5562 196.058 51.2228C196.372 50.8894 196.751 50.6311 197.191 50.4448C197.631 50.2585 198.119 50.167 198.653 50.167C199.187 50.167 199.675 50.2585 200.119 50.4448C200.562 50.6311 200.94 50.8894 201.254 51.2228C201.568 51.5562 201.814 51.9549 201.985 52.4125C202.157 52.8734 202.244 53.38 202.244 53.9292Z" fill="white"></path><path d="M219.356 50.249V57.6034H218.864C218.786 57.6034 218.722 57.5904 218.67 57.5609C218.618 57.5348 218.566 57.489 218.514 57.4236L214.302 51.8801C214.309 51.9651 214.315 52.05 214.318 52.1318C214.322 52.2135 214.325 52.2919 214.325 52.3638V57.6034H213.461V50.249H213.969C214.014 50.249 214.05 50.249 214.082 50.2556C214.111 50.2621 214.14 50.2686 214.163 50.2817C214.186 50.2948 214.212 50.3111 214.234 50.334C214.257 50.3569 214.283 50.383 214.309 50.419L218.521 55.956C218.514 55.8678 218.508 55.7795 218.505 55.6978C218.498 55.6128 218.495 55.5344 218.495 55.4592V50.249H219.359H219.356Z" fill="white"></path></g><defs><clipPath id="clip0_5_6"><rect width="220" height="66" fill="white"></rect></clipPath></defs></svg>