<svg xmlns="http://www.w3.org/2000/svg" 
     viewBox="-13.54666 -13.54666 162.56 162.56">
  <g id="layer1" transform="translate(-37.266682,-80.7667)">
    <g id="g1" transform="matrix(7.868191,0,0,7.868191,-721.16007,-1019.9263)">
      <g id="g32" style="fill:#ffffff;fill-opacity:1"
         transform="matrix(0.26458333,0,0,0.26458333,98.699878,139.89151)">
        <path d="M 7.82637,61.7699 C 6.92373,60.2239 6.15373,58.4654 6.13432,56.6415 6.11167,54.6149 6.81696,52.0621 8.86814,51.2319 c 2.16766,-0.876 3.68826,-2.7653 5.04386,-4.6022 1.3103,-1.7749 2.2938,-3.6086 4.4032,-4.5369 1.4106,-0.621 2.9635,-0.8335 4.5003,-0.9021 3.1479,-0.1406 6.3218,0.2974 9.3176,1.2911 0.8833,0.2909 1.7827,0.6537 2.42,1.3336 0.7442,0.7943 1.0321,1.9121 1.5044,2.8698 0.5048,1.0199 0.9965,2.0429 1.5498,3.0399 1.045,1.8827 1.7923,2.5626 4.4776,3.0136 2.6885,0.4511 0.9706,3.6936 0.9706,3.6936 0,0 -2.0156,4.8212 -4.2544,6.1025 -2.2388,1.2813 -5.2994,0.2255 -8.5121,-1.8076 -3.2094,-2.033 -5.9723,-1.6572 -5.9723,-1.6572 -4.6233,-0.098 -8.263,3.5138 -12.0968,5.5829 -0.4109,0.219 -0.8476,0.4347 -1.3135,0.4183 -0.0097,0 -0.0162,0 -0.0259,0 C 9.48608,64.9993 8.43137,62.829 7.81667,61.7765" style="fill:#ffffff;fill-opacity:1"/>
        <path d="m 41.7195,47.617 c 3.0961,1.8762 5.5097,-3.3275 5.7814,-5.658 0.1133,-0.9577 0.4627,-3.3242 -0.9285,-3.5334 -2.0156,-0.3007 -6.6453,4.5205 -6.6453,4.5205 -1.0676,1.046 -1.1938,2.8633 1.7924,4.6709 z" style="fill:#ffffff;fill-opacity:1"/>
        <path d="m 3.04816,45.1302 c 0,0 1.94117,1.8827 4.55205,-0.9806 2.61409,-2.8633 2.01559,-4.746 0.82177,-6.4784 -1.19382,-1.7324 -4.32883,-5.9521 -7.09177,-4.5205 -2.76294,1.4317 -0.747349,9.7928 1.71795,11.9795 z" style="fill:#ffffff;fill-opacity:1"/>
        <path d="m 11.259,24.3353 c -3.50708,7.0831 -0.5241,10.1719 -0.5241,10.1719 4.4808,3.4648 7.0917,1.4317 7.0917,1.4317 2.9862,-3.8439 -2.7629,-13.0353 -2.7629,-13.0353 -1.5174,-2.811 -3.808,1.4317 -3.808,1.4317" style="fill:#ffffff;fill-opacity:1"/>
        <path d="m 27.2347,18.1573 c 0,0 -4.9273,-0.6799 -5.6003,8.7403 -0.6729,9.4169 4.7042,7.9852 4.7042,7.9852 0,0 4.18,-2.1834 4.2544,-9.041 0.0744,-6.8575 -1.718,-6.9327 -3.3583,-7.6845 z" style="fill:#ffffff;fill-opacity:1"/>
        <path d="m 32.3855,31.2874 c 0,0 -2.09,6.6876 1.8668,8.0114 3.9568,1.3271 6.1956,-3.8112 6.1956,-3.8112 C 44.1814,24.639 39.2347,23.057 39.2347,23.057 c -4.3483,-0.6047 -6.8492,8.2304 -6.8492,8.2304 z" style="fill:#ffffff;fill-opacity:1"/>
        <path d="m 37.9859,11.1883 c -1.1939,3.2032 1.2488,4.6349 1.2488,4.6349 0.1294,-5.4259 3.6785,-9.26656 3.6785,-9.26656 C 41.1209,6.707 39.1797,7.9883 37.9859,11.1915" style="fill:#ffffff;fill-opacity:1"/>
        <path d="M 25.2361,5.16115 C 23.9064,8.72722 26.6273,10.3223 26.6273,10.3223 26.7729,4.28189 30.7232,0 30.7232,0 28.727,0.1667 26.5659,1.59509 25.2361,5.16115 Z" style="fill:#ffffff;fill-opacity:1"/>
        <path d="m 12.3462,9.25345 c -0.8865,3.36665 1.7341,4.56625 1.7341,4.56625 -0.4174,-5.51088 2.7921,-9.7699 2.7921,-9.7699 -1.7989,0.33667 -3.6365,1.8337 -4.5262,5.20365 z" style="fill:#ffffff;fill-opacity:1"/>
        <path d="m 0.971379,20.9719 c -0.482059,3.1248 1.996181,3.955 1.996181,3.955 -0.89618,-4.9356 1.595,-9.09 1.595,-9.09 -1.595,0.4772 -3.11236,2.0069 -3.594416,5.1317" style="fill:#ffffff;fill-opacity:1"/>
      </g>
    </g>
  </g>
</svg>
